<svg id="svg" version="1.1" width="400" height="400" viewBox="0 0 400 400" xmlns="http://www.w3.org/2000/svg" xmlns:xlink="http://www.w3.org/1999/xlink" ><g id="svgg"><path id="path0" d="" stroke="none" fill="#003399" fill-rule="evenodd"></path><path id="path1" d="M61.320 166.800 C 61.320 168.010,61.395 168.505,61.487 167.900 C 61.578 167.295,61.578 166.305,61.487 165.700 C 61.395 165.095,61.320 165.590,61.320 166.800 " stroke="none" fill="#0000ff" fill-rule="evenodd"></path><path id="path2" d="M62.150 121.800 C 62.151 124.220,62.216 125.158,62.296 123.885 C 62.376 122.612,62.375 120.632,62.294 119.485 C 62.214 118.338,62.149 119.380,62.150 121.800 " stroke="none" fill="#0055ff" fill-rule="evenodd"></path><path id="path3" d="M245.554 80.408 C 245.199 80.612,244.330 80.823,243.624 80.877 C 242.917 80.931,242.252 81.115,242.146 81.287 C 242.040 81.459,241.537 81.600,241.030 81.600 C 240.103 81.600,235.334 83.313,233.105 84.447 C 232.723 84.641,232.138 84.800,231.805 84.800 C 231.472 84.800,231.200 84.980,231.200 85.200 C 231.200 85.420,230.840 85.600,230.400 85.600 C 229.960 85.600,229.600 85.780,229.600 86.000 C 229.600 86.220,229.240 86.400,228.800 86.400 C 228.360 86.400,228.000 86.580,228.000 86.800 C 228.000 87.020,227.764 87.200,227.475 87.200 C 227.187 87.200,226.564 87.560,226.092 88.000 C 225.620 88.440,225.123 88.800,224.989 88.800 C 224.701 88.800,221.092 91.224,220.800 91.614 C 220.690 91.760,220.190 92.096,219.689 92.360 C 218.619 92.923,215.739 95.487,213.433 97.928 C 209.258 102.347,208.400 103.342,208.400 103.767 C 208.400 104.018,208.040 104.483,207.600 104.800 C 207.160 105.117,206.800 105.573,206.800 105.813 C 206.800 106.053,206.476 106.598,206.080 107.025 C 205.684 107.451,204.919 108.610,204.380 109.600 C 203.841 110.590,203.296 111.490,203.168 111.600 C 203.040 111.710,202.681 112.385,202.370 113.100 C 202.059 113.815,201.669 114.400,201.502 114.400 C 201.336 114.400,201.200 114.672,201.200 115.005 C 201.200 115.338,201.041 115.923,200.847 116.305 C 200.652 116.687,200.271 117.540,200.000 118.200 C 199.729 118.860,199.348 119.713,199.153 120.095 C 198.959 120.477,198.800 121.152,198.800 121.595 C 198.800 122.038,198.640 122.400,198.444 122.400 C 198.248 122.400,197.991 122.985,197.873 123.700 C 197.754 124.415,197.453 125.810,197.202 126.800 C 195.479 133.613,195.309 152.189,196.961 153.294 C 197.202 153.456,195.926 153.591,194.124 153.594 C 192.322 153.597,190.736 153.420,190.600 153.200 C 190.464 152.980,188.833 152.800,186.976 152.800 C 184.992 152.800,183.600 152.635,183.600 152.400 C 183.600 152.175,182.475 152.000,181.024 152.000 C 179.607 152.000,178.336 151.820,178.200 151.600 C 178.064 151.380,177.099 151.200,176.056 151.200 C 175.013 151.200,173.989 151.038,173.780 150.841 C 173.571 150.644,172.635 150.374,171.700 150.241 C 167.501 149.646,166.782 149.494,166.574 149.158 C 166.452 148.961,165.744 148.800,165.000 148.800 C 164.256 148.800,163.536 148.620,163.400 148.400 C 163.264 148.180,162.569 148.000,161.856 148.000 C 161.143 148.000,160.389 147.853,160.180 147.674 C 159.971 147.495,158.450 147.012,156.800 146.601 C 155.150 146.190,152.900 145.516,151.800 145.104 C 149.572 144.268,148.713 144.015,147.095 143.713 C 146.487 143.600,145.892 143.349,145.771 143.154 C 145.651 142.959,145.203 142.800,144.776 142.800 C 144.349 142.800,144.000 142.620,144.000 142.400 C 144.000 142.180,143.460 142.000,142.800 142.000 C 142.140 142.000,141.600 141.820,141.600 141.600 C 141.600 141.380,141.240 141.200,140.800 141.200 C 140.360 141.200,140.000 141.020,140.000 140.800 C 140.000 140.580,139.550 140.400,139.000 140.400 C 138.450 140.400,138.000 140.220,138.000 140.000 C 138.000 139.780,137.775 139.601,137.500 139.603 C 137.056 139.606,133.226 137.841,128.600 135.502 C 126.794 134.589,123.569 132.839,120.600 131.163 C 119.500 130.542,117.758 129.580,116.728 129.025 C 115.699 128.470,114.743 127.832,114.605 127.608 C 114.466 127.383,114.043 127.200,113.665 127.200 C 113.286 127.200,112.717 126.840,112.400 126.400 C 112.083 125.960,111.543 125.600,111.200 125.600 C 110.857 125.600,110.317 125.240,110.000 124.800 C 109.683 124.360,109.118 124.000,108.745 124.000 C 108.372 124.000,108.007 123.865,107.933 123.700 C 107.728 123.238,101.245 118.400,100.831 118.400 C 100.631 118.400,100.407 118.249,100.333 118.064 C 100.260 117.879,99.300 117.049,98.200 116.220 C 97.100 115.390,95.916 114.417,95.570 114.056 C 95.223 113.695,94.146 112.770,93.176 112.000 C 90.188 109.628,77.980 97.679,75.862 95.054 C 72.459 90.835,71.676 90.207,70.802 90.999 C 70.361 91.398,70.000 91.966,70.000 92.262 C 70.000 92.558,69.820 92.800,69.600 92.800 C 69.380 92.800,69.200 93.160,69.200 93.600 C 69.200 94.040,69.064 94.400,68.898 94.400 C 68.731 94.400,68.356 94.985,68.063 95.700 C 67.416 97.282,66.043 100.346,65.556 101.295 C 65.360 101.677,65.200 102.341,65.200 102.771 C 65.200 103.201,65.044 103.649,64.853 103.768 C 64.577 103.938,63.887 106.879,64.024 107.299 C 64.042 107.355,63.859 107.919,63.618 108.554 C 62.633 111.142,62.117 127.466,62.882 131.800 C 63.798 136.985,65.401 142.241,67.011 145.332 C 67.335 145.955,67.600 146.727,67.600 147.046 C 67.600 147.366,67.901 148.088,68.270 148.650 C 69.421 150.407,70.412 152.172,70.658 152.900 C 70.787 153.285,71.052 153.600,71.247 153.600 C 71.441 153.600,71.600 153.836,71.600 154.125 C 71.600 154.413,71.960 155.036,72.400 155.508 C 72.840 155.980,73.200 156.466,73.200 156.587 C 73.200 156.708,73.740 157.372,74.400 158.063 C 75.060 158.754,75.600 159.467,75.600 159.649 C 75.600 160.483,85.003 170.000,85.827 170.000 C 86.142 170.000,86.400 170.180,86.400 170.400 C 86.400 170.622,85.341 170.800,84.024 170.800 C 82.717 170.800,81.536 170.620,81.400 170.400 C 81.264 170.180,80.353 170.000,79.376 170.000 C 78.399 170.000,77.600 169.840,77.600 169.644 C 77.600 169.448,77.015 169.186,76.300 169.063 C 73.402 168.562,72.400 168.296,72.400 168.027 C 72.400 167.872,71.500 167.500,70.400 167.200 C 69.300 166.900,68.400 166.508,68.400 166.328 C 68.400 166.147,68.148 166.000,67.841 166.000 C 67.533 166.000,66.285 165.476,65.068 164.836 C 61.838 163.137,61.425 163.557,61.723 168.233 C 62.011 172.743,62.712 178.241,63.198 179.800 C 64.395 183.641,65.741 187.581,66.274 188.800 C 67.609 191.856,69.416 195.426,69.869 195.902 C 70.132 196.179,70.462 196.764,70.601 197.202 C 70.740 197.641,71.022 198.000,71.227 198.000 C 71.432 198.000,71.600 198.225,71.601 198.500 C 71.601 198.775,72.141 199.630,72.800 200.400 C 73.459 201.170,73.999 201.953,73.999 202.140 C 74.000 202.326,74.540 202.983,75.200 203.600 C 75.860 204.217,76.400 204.823,76.400 204.947 C 76.400 205.522,81.027 210.285,83.191 211.938 C 83.956 212.522,85.108 213.495,85.750 214.100 C 86.393 214.705,87.122 215.200,87.371 215.200 C 87.620 215.200,88.083 215.560,88.400 216.000 C 88.717 216.440,89.297 216.800,89.688 216.800 C 90.080 216.800,90.400 216.950,90.400 217.132 C 90.400 217.315,90.895 217.720,91.500 218.032 C 92.105 218.344,92.690 218.706,92.800 218.838 C 93.190 219.305,101.525 223.200,102.134 223.200 C 102.474 223.200,102.850 223.357,102.968 223.548 C 103.086 223.740,103.772 224.035,104.492 224.204 C 105.211 224.373,105.935 224.554,106.100 224.606 C 106.265 224.658,106.670 224.722,107.000 224.750 C 108.835 224.903,107.215 225.600,105.024 225.600 C 103.607 225.600,102.336 225.780,102.200 226.000 C 102.052 226.240,99.396 226.400,95.576 226.400 C 91.592 226.400,89.200 226.250,89.200 226.000 C 89.200 225.769,87.933 225.600,86.200 225.600 C 83.257 225.600,82.045 226.439,83.600 227.400 C 83.820 227.536,84.000 227.980,84.000 228.386 C 84.000 228.792,84.339 229.816,84.753 230.662 C 85.167 231.508,85.929 233.100,86.447 234.200 C 86.965 235.300,87.482 236.290,87.595 236.400 C 87.709 236.510,88.071 237.140,88.401 237.800 C 88.730 238.460,89.315 239.349,89.700 239.775 C 90.085 240.202,90.400 240.747,90.400 240.987 C 90.400 241.227,90.760 241.683,91.200 242.000 C 91.640 242.317,92.000 242.773,92.000 243.013 C 92.000 243.253,92.317 243.798,92.704 244.225 C 93.091 244.651,94.023 245.810,94.776 246.800 C 96.340 248.858,100.754 253.288,102.811 254.865 C 103.575 255.451,104.626 256.301,105.148 256.754 C 105.669 257.206,106.434 257.684,106.848 257.815 C 107.261 257.946,107.600 258.222,107.600 258.427 C 107.600 258.632,107.920 258.800,108.312 258.800 C 108.703 258.800,109.283 259.160,109.600 259.600 C 109.917 260.040,110.497 260.400,110.888 260.400 C 111.280 260.400,111.600 260.546,111.600 260.725 C 111.600 260.904,112.230 261.298,113.000 261.600 C 113.770 261.902,114.400 262.296,114.400 262.475 C 114.400 262.654,114.760 262.800,115.200 262.800 C 115.640 262.800,116.000 262.980,116.000 263.200 C 116.000 263.420,116.360 263.600,116.800 263.600 C 117.240 263.600,117.600 263.780,117.600 264.000 C 117.600 264.220,117.949 264.400,118.376 264.400 C 118.803 264.400,119.264 264.580,119.400 264.800 C 119.536 265.020,120.087 265.200,120.624 265.200 C 121.161 265.200,121.600 265.380,121.600 265.600 C 121.600 265.820,122.140 266.000,122.800 266.000 C 123.460 266.000,124.000 266.160,124.000 266.356 C 124.000 266.552,124.585 266.814,125.300 266.937 C 126.015 267.061,127.230 267.273,128.000 267.408 C 128.770 267.544,129.760 267.814,130.200 268.008 C 130.640 268.202,131.900 268.444,133.000 268.546 C 138.548 269.056,139.073 269.530,135.900 271.168 C 135.295 271.480,134.800 271.885,134.800 272.068 C 134.800 272.250,134.564 272.400,134.275 272.400 C 133.987 272.400,133.364 272.760,132.892 273.200 C 132.420 273.640,131.880 274.000,131.692 274.000 C 131.504 274.000,131.002 274.315,130.575 274.700 C 130.149 275.085,129.260 275.670,128.600 275.999 C 127.940 276.329,127.310 276.698,127.200 276.820 C 126.780 277.284,122.788 279.200,122.241 279.200 C 121.925 279.200,121.607 279.335,121.533 279.500 C 121.341 279.932,118.028 281.600,117.362 281.600 C 117.053 281.600,116.800 281.780,116.800 282.000 C 116.800 282.220,116.440 282.400,116.000 282.400 C 115.560 282.400,115.200 282.580,115.200 282.800 C 115.200 283.020,114.857 283.200,114.438 283.200 C 114.019 283.200,112.894 283.583,111.938 284.050 C 109.142 285.418,109.087 285.440,107.100 286.020 C 106.055 286.325,105.200 286.715,105.200 286.887 C 105.200 287.059,104.671 287.200,104.024 287.200 C 103.377 287.200,102.736 287.380,102.600 287.600 C 102.464 287.820,101.834 288.000,101.200 288.000 C 100.566 288.000,99.936 288.180,99.800 288.400 C 99.664 288.620,99.124 288.800,98.600 288.800 C 98.076 288.800,97.536 288.980,97.400 289.200 C 97.264 289.420,96.443 289.600,95.576 289.600 C 94.709 289.600,94.000 289.780,94.000 290.000 C 94.000 290.220,93.190 290.400,92.200 290.400 C 91.210 290.400,90.400 290.580,90.400 290.800 C 90.400 291.020,89.500 291.200,88.400 291.200 C 87.300 291.200,86.400 291.380,86.400 291.600 C 86.400 291.826,85.267 292.000,83.800 292.000 C 82.333 292.000,81.200 292.174,81.200 292.400 C 81.200 292.642,79.467 292.800,76.800 292.800 C 74.133 292.800,72.400 292.958,72.400 293.200 C 72.400 293.452,69.733 293.600,65.200 293.600 C 60.667 293.600,58.000 293.452,58.000 293.200 C 58.000 292.961,56.467 292.800,54.200 292.800 C 50.610 292.800,50.400 292.846,50.400 293.637 C 50.400 294.138,50.721 294.559,51.200 294.684 C 51.640 294.799,52.000 295.024,52.000 295.184 C 52.000 295.344,52.855 295.905,53.900 296.432 C 54.945 296.958,55.890 297.482,56.000 297.595 C 56.382 297.987,58.604 299.251,59.300 299.471 C 59.685 299.593,60.000 299.852,60.000 300.047 C 60.000 300.241,60.345 300.400,60.767 300.400 C 61.188 300.400,61.593 300.538,61.667 300.706 C 62.014 301.503,77.926 308.800,79.316 308.800 C 79.692 308.800,80.000 308.980,80.000 309.200 C 80.000 309.420,80.349 309.600,80.776 309.600 C 81.203 309.600,81.664 309.780,81.800 310.000 C 81.936 310.220,82.476 310.400,83.000 310.400 C 83.524 310.400,84.064 310.580,84.200 310.800 C 84.336 311.020,84.887 311.200,85.424 311.200 C 85.961 311.200,86.400 311.380,86.400 311.600 C 86.400 311.820,86.839 312.000,87.376 312.000 C 87.913 312.000,88.464 312.180,88.600 312.400 C 88.736 312.620,89.276 312.800,89.800 312.800 C 90.324 312.800,90.864 312.980,91.000 313.200 C 91.136 313.420,91.777 313.600,92.424 313.600 C 93.071 313.600,93.600 313.780,93.600 314.000 C 93.600 314.220,94.129 314.400,94.776 314.400 C 95.423 314.400,96.064 314.580,96.200 314.800 C 96.336 315.020,97.067 315.200,97.824 315.200 C 98.581 315.200,99.200 315.380,99.200 315.600 C 99.200 315.820,99.830 316.000,100.600 316.000 C 101.370 316.000,102.000 316.142,102.000 316.315 C 102.000 316.488,102.585 316.674,103.300 316.727 C 104.015 316.781,105.140 316.987,105.800 317.186 C 108.545 318.014,110.363 318.400,111.523 318.400 C 112.199 318.400,112.844 318.547,112.955 318.728 C 113.067 318.908,114.107 319.098,115.266 319.151 C 116.426 319.204,117.561 319.388,117.788 319.560 C 118.014 319.732,119.172 319.916,120.360 319.969 C 121.549 320.022,122.925 320.220,123.420 320.407 C 124.677 320.886,166.626 320.922,167.515 320.445 C 167.905 320.237,169.298 320.024,170.612 319.972 C 171.925 319.921,173.285 319.736,173.633 319.561 C 173.981 319.387,175.116 319.200,176.156 319.146 C 177.196 319.092,178.137 318.902,178.247 318.724 C 178.357 318.546,179.326 318.400,180.400 318.400 C 181.474 318.400,182.464 318.220,182.600 318.000 C 182.736 317.780,183.431 317.600,184.144 317.600 C 184.857 317.600,185.611 317.438,185.820 317.241 C 186.029 317.044,186.920 316.788,187.800 316.674 C 188.680 316.559,190.210 316.257,191.200 316.004 C 192.190 315.750,193.585 315.446,194.300 315.327 C 195.015 315.209,195.600 314.952,195.600 314.756 C 195.600 314.560,196.219 314.400,196.976 314.400 C 197.733 314.400,198.464 314.220,198.600 314.000 C 198.736 313.780,199.276 313.600,199.800 313.600 C 200.324 313.600,200.864 313.420,201.000 313.200 C 201.136 312.980,201.676 312.800,202.200 312.800 C 202.724 312.800,203.264 312.620,203.400 312.400 C 203.536 312.180,204.087 312.000,204.624 312.000 C 205.161 312.000,205.600 311.820,205.600 311.600 C 205.600 311.380,206.140 311.200,206.800 311.200 C 207.460 311.200,208.000 311.020,208.000 310.800 C 208.000 310.580,208.349 310.400,208.776 310.400 C 209.203 310.400,209.664 310.220,209.800 310.000 C 209.936 309.780,210.487 309.600,211.024 309.600 C 211.561 309.600,212.000 309.420,212.000 309.200 C 212.000 308.980,212.293 308.800,212.651 308.800 C 214.026 308.800,226.871 302.944,230.200 300.800 C 231.080 300.233,232.700 299.326,233.800 298.784 C 234.900 298.243,235.860 297.665,235.933 297.500 C 236.007 297.335,236.322 297.200,236.633 297.200 C 236.945 297.200,237.200 297.064,237.200 296.898 C 237.200 296.731,237.706 296.371,238.325 296.097 C 238.944 295.824,239.799 295.285,240.225 294.900 C 240.651 294.515,241.495 293.945,242.100 293.632 C 242.705 293.320,243.200 292.915,243.200 292.732 C 243.200 292.550,243.390 292.400,243.623 292.400 C 244.410 292.400,251.282 287.417,255.337 283.906 C 256.032 283.305,256.709 282.810,256.842 282.806 C 256.975 282.803,258.173 281.765,259.503 280.500 C 260.834 279.235,262.685 277.570,263.617 276.800 C 265.726 275.058,271.265 269.526,273.400 267.030 C 274.280 266.001,275.685 264.424,276.522 263.524 C 277.359 262.625,278.529 261.240,279.122 260.447 C 279.715 259.654,280.560 258.630,281.000 258.172 C 281.440 257.714,282.250 256.735,282.800 255.998 C 284.016 254.367,285.617 252.387,286.297 251.671 C 286.574 251.381,286.800 251.004,286.800 250.834 C 286.800 250.664,287.250 250.001,287.800 249.362 C 288.349 248.723,288.799 247.990,288.800 247.733 C 288.800 247.477,288.935 247.207,289.100 247.133 C 289.528 246.943,291.600 243.832,291.600 243.378 C 291.601 243.170,292.051 242.477,292.600 241.838 C 293.150 241.199,293.600 240.536,293.600 240.366 C 293.600 240.196,293.825 239.812,294.100 239.513 C 294.568 239.003,294.845 238.560,296.100 236.300 C 296.375 235.805,296.690 235.310,296.801 235.200 C 296.911 235.090,297.271 234.460,297.600 233.800 C 297.929 233.140,298.296 232.510,298.415 232.400 C 299.554 231.349,307.263 214.595,308.435 210.627 C 308.732 209.622,309.115 208.800,309.287 208.800 C 309.459 208.800,309.600 208.451,309.600 208.024 C 309.600 207.597,309.780 207.136,310.000 207.000 C 310.220 206.864,310.400 206.324,310.400 205.800 C 310.400 205.276,310.580 204.736,310.800 204.600 C 311.020 204.464,311.200 203.913,311.200 203.376 C 311.200 202.839,311.380 202.400,311.600 202.400 C 311.820 202.400,312.000 201.871,312.000 201.224 C 312.000 200.577,312.180 199.936,312.400 199.800 C 312.620 199.664,312.800 199.124,312.800 198.600 C 312.800 198.076,312.980 197.536,313.200 197.400 C 313.420 197.264,313.600 196.623,313.600 195.976 C 313.600 195.329,313.780 194.800,314.000 194.800 C 314.220 194.800,314.400 194.181,314.400 193.424 C 314.400 192.667,314.580 191.936,314.800 191.800 C 315.020 191.664,315.200 191.034,315.200 190.400 C 315.200 189.766,315.380 189.136,315.600 189.000 C 315.820 188.864,316.000 188.144,316.000 187.400 C 316.000 186.656,316.180 185.936,316.400 185.800 C 316.620 185.664,316.800 184.854,316.800 184.000 C 316.800 183.146,316.980 182.336,317.200 182.200 C 317.420 182.064,317.600 181.189,317.600 180.256 C 317.600 179.323,317.764 178.389,317.965 178.180 C 318.165 177.971,318.428 176.810,318.548 175.600 C 318.669 174.390,318.956 172.140,319.188 170.600 C 320.100 164.537,320.438 159.803,320.630 150.400 L 320.830 140.600 322.115 139.484 C 325.176 136.827,325.808 136.317,326.503 135.945 C 328.640 134.801,340.557 122.846,343.600 118.793 C 344.150 118.061,344.964 117.088,345.409 116.631 C 345.853 116.174,346.659 115.170,347.198 114.400 C 347.737 113.630,348.498 112.651,348.889 112.225 C 349.280 111.798,349.600 111.213,349.600 110.925 C 349.600 110.636,349.780 110.400,350.000 110.400 C 350.645 110.400,350.465 108.111,349.800 107.855 C 349.470 107.729,349.200 107.799,349.200 108.013 C 349.200 108.226,348.840 108.400,348.400 108.400 C 347.960 108.400,347.600 108.580,347.600 108.800 C 347.600 109.020,347.240 109.200,346.800 109.200 C 346.360 109.200,346.000 109.380,346.000 109.600 C 346.000 109.820,345.607 110.000,345.126 110.000 C 344.645 110.000,342.145 110.725,339.569 111.611 C 334.176 113.466,330.771 114.400,329.404 114.400 C 328.878 114.400,328.336 114.580,328.200 114.800 C 328.064 115.020,327.254 115.200,326.400 115.200 C 325.546 115.200,324.736 115.380,324.600 115.600 C 324.464 115.820,323.632 116.000,322.750 116.000 C 321.869 116.000,320.784 116.195,320.339 116.432 C 319.895 116.670,319.431 116.764,319.308 116.642 C 319.186 116.519,319.378 116.306,319.737 116.169 C 321.818 115.370,334.795 102.244,334.799 100.933 C 334.799 100.677,334.939 100.407,335.109 100.333 C 336.062 99.922,341.600 89.662,341.600 88.307 C 341.600 88.006,341.765 87.589,341.967 87.380 C 342.862 86.455,342.643 84.206,341.645 84.065 C 341.120 83.991,340.580 84.082,340.445 84.268 C 340.310 84.453,338.580 85.414,336.600 86.403 C 334.620 87.391,332.940 88.335,332.867 88.500 C 332.793 88.665,332.388 88.800,331.967 88.800 C 331.545 88.800,331.200 88.980,331.200 89.200 C 331.200 89.420,330.935 89.600,330.612 89.600 C 330.289 89.600,329.383 89.960,328.600 90.400 C 327.817 90.840,326.821 91.200,326.388 91.200 C 325.955 91.200,325.600 91.380,325.600 91.600 C 325.600 91.820,325.240 92.000,324.800 92.000 C 324.360 92.000,324.000 92.180,324.000 92.400 C 324.000 92.620,323.460 92.800,322.800 92.800 C 322.140 92.800,321.600 92.980,321.600 93.200 C 321.600 93.420,321.275 93.600,320.879 93.600 C 320.482 93.600,318.327 94.216,316.089 94.970 C 313.852 95.723,311.521 96.392,310.910 96.455 C 310.300 96.518,309.608 96.706,309.373 96.873 C 309.139 97.040,308.360 97.221,307.643 97.275 C 306.926 97.330,306.252 97.515,306.146 97.687 C 305.452 98.811,302.879 97.938,300.582 95.800 C 299.282 94.590,298.061 93.600,297.870 93.600 C 297.678 93.600,297.017 93.060,296.400 92.400 C 295.783 91.740,295.031 91.200,294.728 91.200 C 294.425 91.200,293.917 90.840,293.600 90.400 C 293.283 89.960,292.827 89.600,292.587 89.600 C 292.347 89.600,291.802 89.285,291.375 88.899 C 290.949 88.514,289.700 87.749,288.600 87.199 C 287.500 86.650,286.540 86.065,286.467 85.900 C 286.393 85.735,285.988 85.600,285.567 85.600 C 285.145 85.600,284.800 85.420,284.800 85.200 C 284.800 84.980,284.564 84.800,284.275 84.800 C 283.986 84.800,283.005 84.440,282.094 84.000 C 281.184 83.560,280.171 83.200,279.843 83.200 C 279.515 83.200,279.136 83.020,279.000 82.800 C 278.864 82.580,278.324 82.400,277.800 82.400 C 277.276 82.400,276.749 82.241,276.629 82.046 C 276.422 81.712,275.694 81.524,272.400 80.955 C 271.630 80.822,270.708 80.559,270.351 80.370 C 269.473 79.905,246.369 79.941,245.554 80.408 " stroke="none" fill="#2daae1" fill-rule="evenodd"></path><path id="path4" d="" stroke="none" fill="#00ffff" fill-rule="evenodd"></path></g></svg>